<svg width="110" height="110" viewBox="0 0 110 110" fill="none" xmlns="http://www.w3.org/2000/svg">
<path d="M56.3842 60.4083V49.4679C56.3842 47.2404 57.4246 45.6454 59.6475 45.6454H73.3517C73.4296 45.6454 73.5121 45.5629 73.5121 45.4804V43.3033C73.5121 43.285 73.5121 43.2666 73.4983 43.2483H56.7233C53.0933 43.7066 51.315 46.2412 51.315 49.4679V60.4037C51.315 62.6129 50.2471 64.2125 48.0608 64.2125H33.605C33.5225 64.2125 33.44 64.2675 33.44 64.3775V66.5545C33.44 66.6462 33.4858 66.715 33.5454 66.7379H49.9721C54.2483 66.6233 56.3567 63.8962 56.3567 60.39L56.3842 60.4083ZM0.11 66.7516H4.9225C4.95776 66.7361 4.98753 66.7103 5.00796 66.6776C5.02839 66.6449 5.03853 66.6068 5.03708 66.5683V59.6016C5.03708 57.3695 6.2975 55.8295 8.13542 55.8295H27.9492C32.4133 55.8295 34.5721 53.0795 34.5721 49.4862C34.5721 46.255 32.8029 43.725 29.1637 43.2666H0.0275C0.0275 43.2804 0 43.2895 0 43.3125V45.4895C0 45.5995 0.0595833 45.6545 0.169583 45.6545H26.2808C28.4992 45.6545 29.5442 47.2587 29.5442 49.4725C29.5442 51.6908 28.5038 53.3041 26.2808 53.3041H5.61917C2.41083 53.3041 0 56.0175 0 59.597V66.5591C0 66.6508 0.0458333 66.7241 0.128333 66.7425L0.11 66.7516ZM73.4342 64.2308H99.7333C99.8113 64.2308 99.8708 64.2858 99.8708 64.3408V66.5545C99.8708 66.6645 99.9488 66.7195 100.031 66.7195H104.775C104.858 66.7195 104.94 66.6737 104.94 66.5545V64.3775C104.94 64.295 105.032 64.2125 105.123 64.2125H109.835C109.945 64.2125 110 64.13 110 64.0475V61.8291C110 61.7466 109.954 61.6641 109.84 61.6641H105.119C105.027 61.6641 104.949 61.5862 104.949 61.5037V45.65C104.949 44.3529 104.473 43.5279 103.666 43.2529H102.291C101.801 43.3868 101.334 43.5906 100.902 43.8579L72.5771 61.3433C71.4771 62.0308 71.0967 62.8008 71.3717 63.3829C71.5917 63.8595 72.2196 64.217 73.4525 64.217L73.4342 64.2308ZM77.5363 61.3112L99.4904 47.74C99.6279 47.63 99.9029 47.6575 99.9029 47.96V61.5312C99.9029 61.6137 99.8296 61.6962 99.7471 61.6962H77.6692C77.4858 61.6962 77.3942 61.6412 77.3713 61.5862C77.3438 61.4762 77.3942 61.3937 77.5363 61.3112Z" fill="black"/>
</svg>
