<svg width="110" height="110" viewBox="0 0 110 110" fill="none" xmlns="http://www.w3.org/2000/svg">
<g clip-path="url(#clip0)">
<path d="M47.8966 66.7792C48.7294 66.7792 49.5541 66.6151 50.3234 66.2962C51.0928 65.9774 51.7917 65.5101 52.3804 64.921C52.9691 64.3319 53.4359 63.6326 53.7542 62.863C54.0724 62.0934 54.236 61.2686 54.2354 60.4358V49.5367C54.2354 49.0349 54.3343 48.5381 54.5264 48.0745C54.7186 47.611 55.0002 47.1899 55.3552 46.8354C55.7102 46.4808 56.1317 46.1996 56.5954 46.008C57.0591 45.8164 57.5561 45.7181 58.0579 45.7187H70.3595C70.3818 45.7181 70.4037 45.7132 70.4241 45.7041C70.4444 45.695 70.4628 45.682 70.4781 45.6658C70.4934 45.6497 70.5054 45.6306 70.5134 45.6098C70.5214 45.589 70.5251 45.5668 70.5245 45.5446V43.3629C70.5245 43.3191 70.5071 43.2772 70.4762 43.2462C70.4453 43.2153 70.4033 43.1979 70.3595 43.1979H55.537C54.7042 43.1973 53.8795 43.3608 53.1099 43.6791C52.3403 43.9974 51.641 44.4642 51.0519 45.0529C50.4628 45.6415 49.9955 46.3405 49.6766 47.1099C49.3578 47.8792 49.1937 48.7039 49.1937 49.5367V60.445C49.1937 61.458 48.7916 62.4296 48.0757 63.1463C47.3599 63.863 46.3888 64.2663 45.3758 64.2675H33.2437C33.2216 64.2675 33.1998 64.2719 33.1795 64.2805C33.1591 64.2891 33.1407 64.3016 33.1254 64.3174C33.11 64.3332 33.0979 64.352 33.0899 64.3725C33.0819 64.3931 33.0781 64.415 33.0787 64.4371V66.6187C33.0787 66.6625 33.0961 66.7045 33.127 66.7354C33.158 66.7664 33.1999 66.7838 33.2437 66.7838L47.8966 66.7792ZM75.6029 52.0529V43.3629C75.6029 43.3191 75.6202 43.2772 75.6512 43.2462C75.6821 43.2153 75.7241 43.1979 75.7679 43.1979H109.263C109.307 43.1979 109.35 43.2151 109.381 43.2459C109.413 43.2768 109.431 43.3187 109.432 43.3629V45.5446C109.432 45.59 109.415 45.6336 109.383 45.6661C109.351 45.6987 109.308 45.7175 109.263 45.7187H80.8004C80.7787 45.7187 80.7572 45.723 80.7372 45.7313C80.7172 45.7396 80.699 45.7517 80.6837 45.7671C80.6684 45.7824 80.6562 45.8006 80.6479 45.8206C80.6396 45.8406 80.6354 45.8621 80.6354 45.8837V51.5487C80.6341 51.788 80.6804 52.0252 80.7714 52.2465C80.8624 52.4678 80.9964 52.6689 81.1656 52.8381C81.3348 53.0073 81.5359 53.1413 81.7572 53.2323C81.9785 53.3233 82.2157 53.3695 82.4549 53.3683H103.639C105.349 53.4684 106.956 54.2181 108.132 55.4642C109.307 56.7103 109.962 58.3585 109.962 60.0715C109.962 61.7844 109.307 63.4326 108.132 64.6787C106.956 65.9248 105.349 66.6746 103.639 66.7746H75.7724C75.7504 66.7752 75.7284 66.7714 75.7079 66.7634C75.6873 66.7553 75.6686 66.7433 75.6528 66.7279C75.637 66.7125 75.6244 66.6941 75.6158 66.6738C75.6073 66.6535 75.6029 66.6316 75.6029 66.6096V64.4371C75.6022 64.415 75.6061 64.3931 75.6141 64.3725C75.6221 64.352 75.6342 64.3332 75.6495 64.3174C75.6649 64.3016 75.6833 64.2891 75.7036 64.2805C75.724 64.2719 75.7458 64.2675 75.7679 64.2675H101.114C101.681 64.2918 102.247 64.2007 102.778 63.9998C103.309 63.799 103.794 63.4925 104.203 63.0989C104.613 62.7053 104.938 62.2328 105.159 61.7099C105.381 61.1871 105.494 60.6247 105.491 60.0569C105.489 59.4892 105.372 58.9277 105.147 58.4066C104.921 57.8854 104.592 57.4154 104.18 57.0249C103.768 56.6345 103.281 56.3317 102.748 56.1349C102.216 55.9381 101.649 55.8514 101.082 55.88H79.4208C78.9186 55.88 78.4214 55.7809 77.9576 55.5885C77.4938 55.3961 77.0725 55.114 76.7178 54.7585C76.3632 54.403 76.0822 53.9811 75.8908 53.5168C75.6995 53.0525 75.6017 52.5551 75.6029 52.0529ZM25.892 53.3683C26.907 53.3683 27.8805 52.9651 28.5982 52.2474C29.3159 51.5297 29.7191 50.5562 29.7191 49.5412C29.7191 48.5262 29.3159 47.5528 28.5982 46.8351C27.8805 46.1174 26.907 45.7142 25.892 45.7142H0.170356C0.126163 45.7142 0.0837091 45.6969 0.0520346 45.6661C0.0203601 45.6353 0.00196743 45.5933 0.000773015 45.5492V43.3675C0.000764503 43.3454 0.00517936 43.3236 0.0137565 43.3033C0.0223337 43.2829 0.034899 43.2646 0.0507094 43.2492C0.0665199 43.2338 0.0852544 43.2217 0.105805 43.2137C0.126356 43.2057 0.148306 43.2019 0.170356 43.2025H28.367C30.0193 43.2469 31.5889 43.9345 32.7418 45.1188C33.8947 46.3031 34.5399 47.8907 34.5399 49.5435C34.5399 51.1964 33.8947 52.7839 32.7418 53.9683C31.5889 55.1526 30.0193 55.8402 28.367 55.8846H8.86036C8.35859 55.8846 7.86175 55.9835 7.39824 56.1756C6.93473 56.3678 6.51365 56.6494 6.15906 57.0044C5.80447 57.3595 5.52334 57.7809 5.33175 58.2446C5.14015 58.7084 5.04184 59.2053 5.04244 59.7071V66.6417C5.04245 66.6637 5.03803 66.6856 5.02946 66.7059C5.02088 66.7262 5.00831 66.7446 4.9925 66.76C4.97669 66.7754 4.95796 66.7874 4.93741 66.7954C4.91686 66.8035 4.89491 66.8073 4.87286 66.8067H0.170356C0.146674 66.8075 0.123095 66.8032 0.101225 66.794C0.0793542 66.7849 0.0597051 66.7712 0.0436142 66.7538C0.0275233 66.7364 0.0153681 66.7157 0.00797548 66.6932C0.000582872 66.6707 -0.00187366 66.6469 0.000773015 66.6233V59.6887C0.00683899 58.0108 0.677976 56.4037 1.86706 55.2198C3.05614 54.0358 4.66613 53.3717 6.34411 53.3729L25.892 53.3683Z" fill="black"/>
</g>
<defs>
<clipPath id="clip0">
<rect width="110" height="110" fill="white"/>
</clipPath>
</defs>
</svg>
